<svg xmlns="http://www.w3.org/2000/svg" xmlns:xlink="http://www.w3.org/1999/xlink" viewBox="0 0 160.84 48.55"><defs><style>.cls-1{fill:#1c1c1c;}.cls-2{fill:url(#linear-gradient);}.cls-3{fill:none;stroke:#000;stroke-linecap:round;stroke-miterlimit:10;stroke-width:0.75px;}.cls-4{fill:#f6b617;}.cls-5{fill-rule:evenodd;}</style><linearGradient id="linear-gradient" x1="129.35" y1="40.96" x2="129.35" y2="48.54" gradientUnits="userSpaceOnUse"><stop offset="0.27" stop-color="#f6b617"/><stop offset="0.64"/></linearGradient></defs><title>Asset 23</title><g id="Layer_2" data-name="Layer 2"><g id="Layer_65" data-name="Layer 65"><path class="cls-1" d="M8.71,44.1a20.47,20.47,0,0,1-3.39-.24,8.79,8.79,0,0,1-2.38-.72,4.42,4.42,0,0,1-1.55-1.21A5.23,5.23,0,0,1,.5,40.21,10.31,10.31,0,0,1,.1,38Q0,36.74,0,35.23v-17H4.46v17a21.16,21.16,0,0,0,.1,2.29,2.37,2.37,0,0,0,.52,1.34,2.14,2.14,0,0,0,1.27.63,14.1,14.1,0,0,0,2.36.15Z"/><path class="cls-1" d="M27.24,39.64V44.1H24.59a8.87,8.87,0,0,1-2.78-.41,5.58,5.58,0,0,1-2.11-1.22,6.39,6.39,0,0,1-2.37,1.24,11.33,11.33,0,0,1-3.13.39H8V39.64h6.2a6,6,0,0,0,1.75-.21,2.62,2.62,0,0,0,1-.51,1.41,1.41,0,0,0,.43-.68,2.9,2.9,0,0,0,.1-.73V31.7H21.9v5.68a2,2,0,0,0,.36,1.26,2.36,2.36,0,0,0,.82.68,2.64,2.64,0,0,0,.91.27l.61,0ZM13.58,27l-3-3,3-3.08,3.08,3.08Zm7.51,0-3-3,3-3.08,3.08,3.08Z"/><path class="cls-1" d="M41.38,39.64V44.1H40.25a8.87,8.87,0,0,1-2.78-.41,5.59,5.59,0,0,1-2.12-1.22A6.38,6.38,0,0,1,33,43.71a11.34,11.34,0,0,1-3.13.39H26.68V39.64h3.17a6,6,0,0,0,1.75-.21,2.62,2.62,0,0,0,1-.51,1.42,1.42,0,0,0,.43-.68,2.9,2.9,0,0,0,.1-.73V31.7h4.45v5.68a2,2,0,0,0,.36,1.26,2.36,2.36,0,0,0,.82.68,2.63,2.63,0,0,0,.9.27l.61,0ZM31.06,23.46l3.23-3.26,3.3,3.3-3.26,3.26Z"/><path class="cls-1" d="M48.6,39.64a.74.74,0,0,1,.55.19.67.67,0,0,1,.19.49v3.06a.7.7,0,0,1-.19.56.82.82,0,0,1-.55.16H41.11a.6.6,0,0,1-.72-.72V40.32a.73.73,0,0,1,.16-.49.7.7,0,0,1,.56-.19Z"/><path class="cls-1" d="M56,39.64a.74.74,0,0,1,.55.19.67.67,0,0,1,.19.49v3.06a.7.7,0,0,1-.19.56.82.82,0,0,1-.55.16H48.53a.6.6,0,0,1-.72-.72V40.32a.73.73,0,0,1,.16-.49.7.7,0,0,1,.56-.19Z"/><path class="cls-1" d="M60.68,22.42l1.26-.4q.67-.22,1.34-.49t1.3-.58a7.34,7.34,0,0,0,1.13-.69,5,5,0,0,1-1.21-.57,4.35,4.35,0,0,1-.94-.82,3.89,3.89,0,0,1-.62-1,2.8,2.8,0,0,1-.22-1.1A2.69,2.69,0,0,1,63,15.64a3.89,3.89,0,0,1,.57-.86,4.33,4.33,0,0,1,.8-.72,4,4,0,0,1,.94-.48,3,3,0,0,1,1-.18,2.46,2.46,0,0,1,1.2.3,3.35,3.35,0,0,1,1.45,1.41A4.05,4.05,0,0,1,69.35,17a6,6,0,0,1-.35,2,7.44,7.44,0,0,1-1,1.86,5.74,5.74,0,0,1-1.55,1.48,13.43,13.43,0,0,1-2,1.08,16.94,16.94,0,0,1-1.9.73l-1.36.42Zm5.63-6.88a2.49,2.49,0,0,0-.92.21,1.41,1.41,0,0,0-.74.64.58.58,0,0,0,.05.53,2.46,2.46,0,0,0,.51.67,4.41,4.41,0,0,0,.83.63,2.68,2.68,0,0,0,1,.36,3.8,3.8,0,0,0,.19-.68,4.39,4.39,0,0,0,.08-.84,2.21,2.21,0,0,0-.22-1,.93.93,0,0,0-.82-.5Z"/><path class="cls-1" d="M67.38,28.65a7.31,7.31,0,0,1,3.29.7A6.73,6.73,0,0,1,73,31.23a8,8,0,0,1,1.38,2.71,11.28,11.28,0,0,1,.46,3.23,13.43,13.43,0,0,1-.32,3.17,7.65,7.65,0,0,1-.85,2.17,4.7,4.7,0,0,1-1.2,1.35,5.37,5.37,0,0,1-1.34.73,5.46,5.46,0,0,1-1.3.3q-.63.06-1.08.06a8.23,8.23,0,0,1-1.7-.17,11.36,11.36,0,0,1-1.64-.48,16.89,16.89,0,0,1-1.73-.77q-.9-.46-2-1A4.85,4.85,0,0,1,60,43.73a5.82,5.82,0,0,1-2.16.37h-2.2l0-4.46h2.24a1.08,1.08,0,0,0,.69-.23,2.23,2.23,0,0,0,.54-.65,5.93,5.93,0,0,0,.45-1q.21-.6.42-1.33.36-1.29.86-2.66a9.94,9.94,0,0,1,1.33-2.5,6.71,6.71,0,0,1,2.11-1.85A6.28,6.28,0,0,1,67.38,28.65Zm1.54,12.06a3.23,3.23,0,0,0,.51-.06,1.48,1.48,0,0,0,.71-.39,2.74,2.74,0,0,0,.64-1,5.11,5.11,0,0,0,.28-1.89,5.46,5.46,0,0,0-.17-1.19,4.85,4.85,0,0,0-.59-1.42,4,4,0,0,0-1.13-1.18,3.05,3.05,0,0,0-1.78-.49,2.13,2.13,0,0,0-1.52.55,4.71,4.71,0,0,0-1,1.38,11,11,0,0,0-.68,1.78,17.55,17.55,0,0,1-.6,1.75q.66.38,1.41.76t1.46.69a14,14,0,0,0,1.35.5A3.83,3.83,0,0,0,68.92,40.71Z"/><path class="cls-2" d="M156.6,41H98l50.93,1.31h7.7a2.58,2.58,0,0,1,2.67,2.55c0,1.33-1.23,2.22-2.67,2.41h-7.7v1.31h7.7a3.81,3.81,0,1,0,0-7.58Z"/><g id="_Group_" data-name="&lt;Group&gt;"><g id="_Group_2" data-name="&lt;Group&gt;"><path d="M99,21.5a.71.71,0,0,1-.66-.45,8.21,8.21,0,0,1,7.57-11.19h.37a4.34,4.34,0,0,1,1.29.11.71.71,0,0,1-.33,1.37,3.05,3.05,0,0,0-.92-.07h-.41a6.79,6.79,0,0,0-6.26,9.26.71.71,0,0,1-.66,1Z"/></g><g id="_Group_3" data-name="&lt;Group&gt;"><path d="M109.85,17.16a.7.7,0,0,1-.47-.19,8.21,8.21,0,0,1,5.48-14.25A7.69,7.69,0,0,1,120,4.57a.71.71,0,0,1,.08,1,.7.7,0,0,1-1,.08,6.25,6.25,0,0,0-4.24-1.51,6.79,6.79,0,0,0-4.53,11.79.71.71,0,0,1,0,1A.7.7,0,0,1,109.85,17.16Z"/></g><g id="_Group_4" data-name="&lt;Group&gt;"><path class="cls-3" d="M111.7,35.77"/></g><g id="_Group_5" data-name="&lt;Group&gt;"><path d="M126.49,36.48H100.27a8.19,8.19,0,1,1,8.14-8.19.7.7,0,1,1-1.41,0,6.73,6.73,0,1,0-6.73,6.78h26.22a.71.71,0,0,1,0,1.41Z"/></g><g id="_Group_6" data-name="&lt;Group&gt;"><path d="M119.05,8.9a.71.71,0,0,1-.7-.71A8.17,8.17,0,0,1,126.49,0a.71.71,0,0,1,0,1.41,6.76,6.76,0,0,0-6.73,6.78A.71.71,0,0,1,119.05,8.9Z"/></g><g id="_Group_7" data-name="&lt;Group&gt;"><path d="M123.76,23.65a.71.71,0,0,1-.7-.71,6.76,6.76,0,0,0-6.73-6.78.71.71,0,0,1,0-1.41,8.17,8.17,0,0,1,8.14,8.19A.71.71,0,0,1,123.76,23.65Z"/></g><g id="_Group_8" data-name="&lt;Group&gt;"><path d="M129.94,32.77H123a8.17,8.17,0,0,1-8.13-8.19.7.7,0,1,1,1.41,0A6.76,6.76,0,0,0,123,31.36h6.91a6.76,6.76,0,0,0,6.73-6.78.7.7,0,1,1,1.41,0A8.17,8.17,0,0,1,129.94,32.77Z"/></g><g id="_Group_9" data-name="&lt;Group&gt;"><path d="M154,21.5a.7.7,0,0,1-.26,0,.71.71,0,0,1-.4-.92A6.79,6.79,0,0,0,147,11.28h-.41a3,3,0,0,0-.92.07.71.71,0,0,1-.33-1.37,4.3,4.3,0,0,1,1.29-.11H147a8.21,8.21,0,0,1,7.57,11.19A.7.7,0,0,1,154,21.5Z"/></g><g id="_Group_10" data-name="&lt;Group&gt;"><path d="M143.12,17.16a.7.7,0,0,1-.52-.23.71.71,0,0,1,0-1,6.79,6.79,0,0,0-4.53-11.79,6.33,6.33,0,0,0-4.24,1.52.7.7,0,0,1-1-.08.71.71,0,0,1,.08-1,7.7,7.7,0,0,1,5.16-1.86A8.21,8.21,0,0,1,143.59,17,.7.7,0,0,1,143.12,17.16Z"/></g><g id="_Group_11" data-name="&lt;Group&gt;"><path class="cls-3" d="M141.27,35.77"/></g><g id="_Group_12" data-name="&lt;Group&gt;"><path d="M152.7,36.48H126.49a.71.71,0,0,1,0-1.41H152.7A6.78,6.78,0,1,0,146,28.28a.7.7,0,1,1-1.41,0,8.14,8.14,0,1,1,8.13,8.19Z"/></g><g id="_Group_13" data-name="&lt;Group&gt;"><path d="M133.92,8.9a.71.71,0,0,1-.7-.71,6.76,6.76,0,0,0-6.73-6.78.71.71,0,0,1,0-1.41,8.17,8.17,0,0,1,8.13,8.19A.71.71,0,0,1,133.92,8.9Z"/></g><g id="_Group_14" data-name="&lt;Group&gt;"><path d="M129.21,23.65a.71.71,0,0,1-.7-.71,8.18,8.18,0,0,1,8.14-8.19.71.71,0,0,1,0,1.41,6.76,6.76,0,0,0-6.73,6.78A.71.71,0,0,1,129.21,23.65Z"/></g><g id="_Group_15" data-name="&lt;Group&gt;"><path class="cls-4" d="M118.31,17.45a2.78,2.78,0,0,1-3.95,0,2.83,2.83,0,0,1,0-4,2.78,2.78,0,0,1,3.95,0A2.83,2.83,0,0,1,118.31,17.45Z"/><path d="M116.33,19a3.46,3.46,0,0,1-2.47-1,3.51,3.51,0,1,1,4.94,0h0A3.46,3.46,0,0,1,116.33,19Zm0-5.63a2.07,2.07,0,0,0-1.47.62,2.1,2.1,0,0,0,2.95,3h0a2.12,2.12,0,0,0,0-3A2.07,2.07,0,0,0,116.33,13.35Z"/></g><g id="_Group_16" data-name="&lt;Group&gt;"><path class="cls-4" d="M138.61,17.45a2.78,2.78,0,0,1-3.95,0,2.83,2.83,0,0,1,0-4,2.78,2.78,0,0,1,3.95,0A2.83,2.83,0,0,1,138.61,17.45Z"/><path d="M136.64,19a3.46,3.46,0,0,1-2.47-1,3.54,3.54,0,0,1,0-5,3.46,3.46,0,0,1,2.47-1h0a3.46,3.46,0,0,1,2.47,1,3.54,3.54,0,0,1,0,5h0a3.46,3.46,0,0,1-2.47,1Zm0-5.63a2.07,2.07,0,0,0-1.48.62,2.12,2.12,0,0,0,0,3,2.07,2.07,0,0,0,1.48.62h0a2.07,2.07,0,0,0,1.47-.62h0a2.12,2.12,0,0,0,0-3,2.06,2.06,0,0,0-1.47-.62Z"/></g></g><g id="_Group_17" data-name="&lt;Group&gt;"><g id="_Group_18" data-name="&lt;Group&gt;"><path class="cls-3" d="M108.62,47.89"/></g><g id="_Group_19" data-name="&lt;Group&gt;"><path class="cls-3" d="M139.51,47.89"/></g><g id="_Group_20" data-name="&lt;Group&gt;"><path d="M153.88,48.55H96.67a.66.66,0,1,1,0-1.32h59.47a.66.66,0,1,1,0,1.32Z"/></g></g><path id="_Path_" data-name="&lt;Path&gt;" class="cls-5" d="M97.62,46.72"/><path id="_Path_2" data-name="&lt;Path&gt;" class="cls-5" d="M99.65,46.92"/><path id="_Path_3" data-name="&lt;Path&gt;" class="cls-5" d="M96.67,46.85,90.1,42.91h0a1.49,1.49,0,0,1,.15-2.72l6.42-3.75,2.87,0V35L98.88,35,98,34.9l-1.72-.15h0L86.2,40.15c-.59.35-1,.75-1,1.42A1.54,1.54,0,0,0,86.11,43l10.2,5.58h4.17"/><rect class="cls-4" x="98.09" y="40.96" width="50.74" height="1.31"/><rect class="cls-4" x="97.4" y="40.96" width="2.97" height="1.31" rx="0.35" ry="0.35"/></g></g></svg>